<svg width="48" height="34" viewBox="0 0 48 34" fill="none" xmlns="http://www.w3.org/2000/svg">
<path d="M8.85565 33.9481C8.6547 33.9169 8.0208 33.8007 7.27817 33.3671C6.87022 33.1279 6.53027 32.8393 6.27539 32.5157C6.01128 32.1781 5.84639 31.8083 5.79001 31.4273L5.55509 29.8595L5.42889 29.0247V28.9304L6.01134 31.5814C6.02274 31.658 6.04089 31.7341 6.0657 31.8092C6.05168 31.7327 6.04487 31.6558 6.04532 31.5787C6.20497 32.2395 6.70118 32.8402 7.44611 33.2748C7.69101 33.4222 7.95337 33.5554 8.23048 33.6732C8.86633 33.9229 9.06824 33.9654 8.85565 33.9481ZM47.8061 3.29814C47.6722 2.81271 47.5149 2.49661 47.4431 2.39568C47.3712 2.29474 47.3761 2.4063 47.4664 2.79013L47.5887 3.30013C47.7102 3.79235 47.7735 4.29046 47.778 4.78964L47.8188 4.61963L47.812 4.7903C47.8566 5.71468 47.6596 6.69816 47.0499 7.62321C47.0791 7.59332 47.1121 7.5641 47.1363 7.53289C47.3344 7.24508 47.4974 6.94656 47.6236 6.64039C48.0537 5.55014 48.1161 4.4073 47.8061 3.29814ZM2.78164 3.1142C2.72694 3.25506 2.6832 3.39782 2.65059 3.54185C2.56063 3.94879 2.52166 4.36023 2.5341 4.77171L2.57973 4.63491L2.56808 4.77171C2.64283 5.51148 2.91173 6.20542 3.39516 6.7732C3.38295 6.75149 3.37258 6.72932 3.3641 6.70679C3.23377 6.51333 3.12442 6.31357 3.03695 6.10913C2.70107 5.34147 2.71272 4.4317 2.86319 3.58568C3.02239 2.78349 3.06802 2.48267 2.78164 3.1142ZM39.8091 28.7385L39.778 28.8302L39.6538 29.6656L39.4227 31.2327C39.3818 31.5191 39.1912 31.7858 38.8859 31.9838C38.5947 32.187 38.3034 32.282 38.2258 32.3318C38.1481 32.3816 38.2578 32.3982 38.6063 32.2913C38.8766 32.2008 39.1108 32.0668 39.2888 31.9008C39.4668 31.7349 39.5834 31.5419 39.6285 31.3383C39.61 31.3687 39.5872 31.3979 39.5606 31.4253C39.5757 31.396 39.5871 31.3657 39.5945 31.335L39.8091 28.7385ZM38.1083 3.96885C38.1598 3.9974 38.2054 4.02729 38.2607 4.05584L38.3665 4.11694L38.1083 3.96885ZM19.1893 31.5223C19.3163 31.5491 19.4461 31.5693 19.5776 31.5827C19.4446 31.5661 19.3204 31.5429 19.1893 31.5223ZM47.3538 19.6023C47.3043 19.7876 47.1868 20.1548 47.0053 20.6781L46.8558 21.0991L46.6209 21.5639C46.451 21.89 46.2733 22.2539 46.0549 22.6431C45.243 23.9529 44.1819 25.1836 42.899 26.3034C42.8087 26.901 42.7184 27.5133 42.6495 28.0625C42.5185 29.1084 42.3787 30.1091 42.1971 31.1584L42.1535 31.4632C42.1219 31.8157 41.9756 32.159 41.7253 32.4679C41.5421 32.6925 41.3209 32.9016 41.0662 33.0908C40.9489 33.1892 40.8023 33.2693 40.6362 33.3259C40.5721 33.3485 40.7517 33.2196 40.6449 33.2694C40.4527 33.3657 40.2528 33.4543 40.0459 33.5351C39.8295 33.6114 39.6703 33.6599 39.7547 33.6108C39.9702 33.4846 39.48 33.6878 39.0276 33.7768C39.4723 33.6562 39.8856 33.4873 40.2517 33.2767C39.6499 33.5742 39.4858 33.5716 39.315 33.6154C38.9138 33.7055 38.5046 33.7781 38.0899 33.8326C38.2786 33.8071 38.4647 33.7734 38.6471 33.7316C38.1965 33.7772 37.7386 33.7772 37.288 33.7316C38.4384 33.719 39.213 33.4853 39.877 33.1665C39.8605 33.1519 39.6644 33.2223 39.8625 33.1041C40.224 32.8976 40.5379 32.6549 40.7934 32.3842C41.085 32.0688 41.2633 31.7106 41.3137 31.339C41.3904 30.8602 41.439 30.5102 41.4448 30.2951C41.4516 30.0613 41.4885 29.7851 41.5419 29.4132L41.6195 28.8461H41.6059L41.3283 30.5468L41.4778 29.4763L41.8156 27.1873L41.7642 27.2264C41.7011 27.2743 41.6341 27.3201 41.57 27.3672L41.4438 28.028L41.4943 27.5352C41.472 27.518 41.4594 27.4841 41.439 27.496C41.4186 27.508 41.4099 27.496 41.3963 27.4927L41.34 27.5332C41.289 27.66 41.2523 27.7892 41.2303 27.9197C41.1778 28.1588 41.107 28.54 41.0779 28.5991C41.0381 28.6807 41.0206 28.8043 40.975 29.0931C40.9322 29.3627 40.8643 29.7399 40.8342 29.8362C40.7963 29.9584 40.7847 29.8449 40.7556 29.8296L40.7099 30.0507L40.8536 29.048L40.9012 28.9729L41.0623 27.7338C39.3967 28.8892 37.4969 29.8747 35.4213 30.6603L33.4798 31.3018C33.1099 31.4074 32.7333 31.501 32.3556 31.596C33.2021 32.3583 34.4806 32.8922 35.8969 33.0988C35.7271 33.1081 36.129 33.201 36.7706 33.2402C36.9149 33.2869 37.063 33.3277 37.2143 33.3624C37.3443 33.3896 37.2783 33.4036 37.0036 33.4042C36.5197 33.4047 36.038 33.36 35.5717 33.2714C34.7127 33.1234 33.9069 32.8568 33.2041 32.4878C32.7593 32.2569 32.3668 31.9824 32.0392 31.673L31.7742 31.7394C31.7955 31.7594 31.813 31.7813 31.8343 31.8005C32.7769 32.6439 33.8496 33.0237 33.4458 32.9328C33.1779 32.8537 33.9118 33.284 34.6893 33.4733C34.9883 33.5489 35.2933 33.613 35.6028 33.6652C35.792 33.7019 35.9838 33.732 36.1775 33.7555C36.3294 33.771 36.4778 33.7996 36.6192 33.8405C36.6541 33.8545 36.458 33.8598 36.6289 33.8764C37.0026 33.9076 37.0881 33.9255 36.9755 33.9368C36.6979 33.9539 36.4185 33.9492 36.1425 33.9229C36.37 33.9586 36.6005 33.9844 36.8328 33.9999C36.6397 34.0009 36.4467 33.9932 36.2552 33.9767C36.0515 33.9663 35.8491 33.9466 35.6494 33.9176C35.1946 33.8521 34.7489 33.7597 34.3175 33.6413C32.9997 33.3079 31.8689 32.6989 31.0859 31.9008C31.0529 31.9068 31.0199 31.9141 30.9888 31.9187L31.0859 31.8948C30.8701 31.6714 30.6867 31.4341 30.5384 31.1863C28.727 31.5608 26.9951 31.7899 25.2264 31.8351C23.1723 31.9347 21.0522 31.7992 18.6593 31.42C18.8894 31.4619 19.0554 31.497 19.1981 31.5256C18.7709 31.4592 18.3661 31.3842 17.9904 31.3264L17.2886 31.2049C17.0653 31.1644 16.8624 31.1039 16.6624 31.0574L16.5362 31.0329C16.4984 31.0893 16.4664 31.1484 16.4246 31.2035C16.346 31.3118 16.2606 31.4154 16.1683 31.517C17.0372 31.7253 17.9247 31.8954 18.8253 32.0263C19.0907 32.0783 19.3618 32.1158 19.6359 32.1385L20.3581 32.2142L21.5279 32.3384C22.1957 32.373 22.6374 32.3896 22.8869 32.4101C24.0654 32.5317 25.1662 32.4938 26.0681 32.521C26.2176 32.521 25.3497 32.5675 24.5974 32.5994C24.3625 32.606 24.1256 32.626 23.8858 32.6213L23.1607 32.6014L21.6774 32.5549C21.1784 32.523 20.6775 32.4593 20.1698 32.4101C19.6621 32.361 19.1456 32.3125 18.6438 32.2069L17.1284 31.9413C16.7451 31.8673 16.3682 31.7786 15.9994 31.6757C15.083 32.5264 13.6842 33.1067 12.1484 33.3212C12.3028 33.2628 11.8747 33.3212 11.2155 33.3564C11.0495 33.3226 10.9457 33.29 10.7574 33.2621C10.6279 33.2427 10.6949 33.2243 10.9583 33.207C11.4201 33.1883 11.8787 33.1425 12.329 33.0702C13.1551 32.9379 13.9318 32.6891 14.6093 32.3397C15.0193 32.1264 15.3873 31.8777 15.7043 31.6L15.6461 31.5854C15.5752 31.5694 15.5063 31.5495 15.4364 31.5322C14.6287 32.2249 13.689 32.4706 13.9618 32.3158C14.1307 32.1996 13.4308 32.4413 12.8066 32.5815C12.5628 32.6404 12.3125 32.6862 12.0582 32.7183C11.903 32.743 11.7446 32.757 11.5854 32.7601C11.3495 32.7674 11.2631 32.7601 11.2223 32.7462C11.1816 32.7322 11.3427 32.7136 11.2068 32.711C10.6127 32.6817 10.9476 32.6738 11.5534 32.5934C11.3807 32.6035 11.2071 32.6053 11.034 32.5987C11.1768 32.593 11.3186 32.5794 11.4582 32.5582C11.6063 32.543 11.753 32.5227 11.898 32.4971C12.2077 32.452 12.6892 32.357 12.8619 32.2926C13.5785 32.069 14.2197 31.7463 14.7452 31.345C14.0822 31.1511 13.4434 30.9259 12.8037 30.7181C12.1038 30.4697 11.5951 30.2274 11.199 30.07C10.803 29.9126 10.5506 29.801 10.436 29.7293C10.2031 29.5898 10.403 29.7233 11.067 29.9717C11.4553 30.1257 11.1524 29.9836 11.1641 29.9763C10.6894 29.797 10.1885 29.5268 9.72447 29.2897C9.26045 29.0526 8.83041 28.8507 8.61102 28.7027L8.10137 28.3965C8.24504 29.2498 8.37707 30.0892 8.48967 30.9605C8.50132 31.0515 8.52462 31.2095 8.53724 31.262C8.57586 31.3837 8.63111 31.5026 8.70227 31.6172C8.75202 31.7134 8.82485 31.8031 8.91778 31.8829C8.97375 31.9247 9.0164 31.974 9.043 32.0276C9.05562 32.0515 8.95078 32.0077 8.98379 32.0429C9.04591 32.1412 9.43713 32.3378 9.32355 32.3165C9.17211 32.288 9.42063 32.4181 9.66817 32.4978C9.4074 32.4402 9.16213 32.3538 8.94204 32.2421C9.26725 32.4234 9.34782 32.454 9.42742 32.5078C9.50702 32.5615 9.62157 32.6286 10.1691 32.7136C10.0452 32.7021 9.92267 32.685 9.80213 32.6625C10.0816 32.7695 10.383 32.8472 10.6962 32.8929C10.0247 32.8977 9.3686 32.7555 8.82361 32.4872C8.80711 32.5018 8.92069 32.5868 8.74984 32.5197C8.45461 32.396 8.2067 32.2259 8.02662 32.0237C7.81751 31.7946 7.69537 31.5335 7.67133 31.264C7.60435 30.7845 7.54901 30.4352 7.49077 30.2234C7.42864 29.9936 7.38301 29.718 7.32768 29.3455L7.23643 28.779H7.22187L7.45485 30.4863L7.28497 29.4172L7.03257 27.7577C6.94423 27.6986 6.86172 27.6395 6.78115 27.5804L6.82774 28.0067L6.73746 27.5485L6.65786 27.4901C6.61224 27.5067 6.54137 27.3705 6.587 27.931C6.60641 28.1727 6.64913 28.5552 6.63942 28.6177C6.62486 28.7027 6.64427 28.8262 6.68504 29.1157C6.7229 29.3853 6.76853 29.7645 6.76756 29.8628C6.76756 29.9876 6.72193 29.8781 6.68796 29.8668L6.70931 30.0899L6.55302 29.0858L6.57729 29.0055L6.36178 27.7311L6.29092 27.2191C5.97057 26.9741 5.66575 26.7237 5.37064 26.4701L5.37841 26.5185C5.45122 26.9761 5.48034 27.2225 5.46578 27.3241C5.43083 27.5598 5.392 27.7783 5.34735 27.9569C5.33958 27.9868 5.2959 27.8194 5.26483 27.6747C5.18717 27.3128 5.12407 26.9203 5.07068 26.5199L5.01923 26.1573C3.56131 24.8423 2.40421 23.3833 1.58762 21.8302C1.42647 21.5195 1.24494 21.1741 1.18961 21.0446C0.990605 20.366 1.12748 20.86 1.74682 21.8834C1.90603 22.137 2.02834 22.4425 2.26812 22.7466L2.98647 23.7427C3.23207 24.0974 3.58737 24.434 3.89801 24.7993C4.06304 24.9779 4.21545 25.1658 4.39698 25.3425L4.96778 25.8651L4.97846 25.8744L4.87362 25.1326C4.86294 25.0583 4.85323 24.9952 4.84352 24.9288C4.6387 24.7163 4.43095 24.5058 4.24457 24.2833C3.66212 23.6856 3.21557 22.9392 2.81368 22.3907C1.90291 20.8541 1.32599 19.2345 1.10127 17.5835C0.865378 15.8922 1.12263 14.1662 1.6711 12.5539C2.05048 11.4878 2.59424 10.4522 3.29323 9.46466C3.22334 9.4288 3.15344 9.39361 3.08452 9.35642L2.58458 10.0656L2.05358 11.0458C1.96815 11.2112 1.86817 11.3739 1.79342 11.5432L1.59927 12.0578C0.992547 13.4238 0.795484 14.9007 0.760537 16.4234L0.775098 17.4627C0.775098 17.5955 0.745975 17.4414 0.713941 17.1552L0.633368 16.3836C0.59745 16.102 0.645988 15.8072 0.646959 15.5329C0.678023 14.9857 0.675111 14.5202 0.705204 14.4186C0.711028 14.3123 0.749858 14.0832 0.811016 13.7738L0.917799 13.2545L0.98381 12.9603L1.08962 12.6515C1.25077 12.2338 1.40026 11.773 1.60024 11.3287L2.26909 10.067C2.47003 9.75087 2.65739 9.46931 2.83892 9.22228C2.43733 8.99231 2.07049 8.73536 1.74391 8.45528C0.632397 7.50367 0.118869 6.35019 0.0392672 5.21796L0.0169398 4.89057C-0.0442176 4.19729 0.0742142 3.99873 0.149933 3.57373C0.161333 3.47875 0.201675 3.38646 0.268365 3.30279C0.294575 3.26892 0.283897 3.40373 0.315932 3.33998C0.388738 3.18127 0.57124 2.7058 0.573181 2.82599C0.573181 2.97873 0.678993 2.68123 0.798396 2.43685C0.716853 2.68853 0.662491 2.89505 0.596479 3.20584C0.71297 2.81138 0.776069 2.74099 0.833343 2.64537C0.890618 2.54974 0.952746 2.43552 1.1634 1.96802L1.04497 2.28544C1.21485 2.03775 1.37017 1.82989 1.59053 1.56891C1.31837 2.07813 1.11242 2.60279 0.975073 3.13677C1.00225 3.13677 1.07215 3.01791 1.04885 3.17131C0.994488 3.57705 0.839168 4.35866 0.876056 4.93839C0.879664 5.288 0.944851 5.63605 1.07021 5.97499C1.16728 6.20011 1.25465 6.47171 1.44783 6.825C1.54527 7.00478 1.65974 7.18002 1.79051 7.34961L1.8041 7.34629C1.4306 6.8325 1.18487 6.27974 1.077 5.7107C1.16007 6.06337 1.29005 6.41013 1.4653 6.74664C1.83031 7.46645 2.4511 8.11293 3.27188 8.62794L3.33789 8.53696L3.37575 8.49512C3.11071 8.31692 2.86904 8.12315 2.65351 7.91606C2.79733 8.04129 2.95402 8.15935 3.12238 8.26934C3.15636 8.26934 3.20004 8.28262 3.20004 8.26536C3.21072 8.21157 3.40293 8.33176 2.90881 7.89016C2.71743 7.72037 2.55461 7.53637 2.42344 7.34164C2.40014 7.26129 2.2953 7.16965 2.14871 6.9193C2.0119 6.70778 1.90936 6.48666 1.84293 6.25988C1.81769 6.14632 1.88467 6.24128 1.91962 6.24726C1.91088 6.22269 1.88855 6.15894 1.85652 6.04804C1.95623 6.34616 2.09932 6.6367 2.28365 6.91531L2.29239 6.99035C2.54467 7.33854 2.86006 7.66362 3.2311 7.95789C3.35148 8.04887 3.47865 8.13719 3.61164 8.22352C3.82229 7.99442 3.99994 7.80317 4.15914 7.6418L4.55812 7.23805L5.09495 6.7732C5.48325 6.44117 5.88806 6.04273 6.42974 5.67948C6.64718 5.5294 7.10926 5.15886 7.61308 4.82085L8.87506 4.03592C10.0956 3.30651 11.4358 2.67652 12.8687 2.1586L12.8124 2.11345L12.4018 1.83388C11.2932 1.16981 9.8031 0.877622 8.33435 0.865668L7.68395 0.881606L7.78102 0.887583C6.31268 0.945751 4.86569 1.15577 3.48932 1.51048C3.61358 1.43942 3.22528 1.51845 2.64283 1.65989C2.48957 1.65409 2.33595 1.65409 2.18269 1.65989C1.92447 1.67583 2.38558 1.5397 3.60387 1.24087C3.98868 1.1422 4.38313 1.06209 4.78431 1.00114C5.18717 0.934731 5.58421 0.847739 5.99193 0.801918C6.51904 0.759418 7.11315 0.677074 7.55969 0.669105C8.87895 0.643206 10.2603 0.771371 11.5844 1.26676C11.7318 1.31319 11.8693 1.37306 11.9931 1.44473L12.3698 1.64395C12.6016 1.78421 12.8189 1.93532 13.0202 2.09618C13.1173 2.06099 13.2143 2.02513 13.3114 1.99126C13.2341 1.9361 13.151 1.88483 13.0629 1.83786C12.9988 1.80067 12.8435 1.69907 12.7231 1.61938C12.3882 1.43677 11.9232 1.17446 11.432 1.0184C10.9699 0.819184 10.4914 0.752777 10.3118 0.686371C10.2147 0.663792 10.0468 0.597386 9.87397 0.589417C9.48567 0.552893 9.08669 0.50176 8.69062 0.481838L7.5063 0.489807C6.80542 0.535628 6.19578 0.60137 5.7968 0.617972C5.4085 0.666449 5.23474 0.675081 5.4085 0.617972C5.6444 0.54094 4.80178 0.617972 4.09507 0.741488C2.78359 1.03899 2.50013 1.09477 2.39917 1.08016C2.36228 1.07684 2.51469 1.02172 2.3681 1.04961C1.72935 1.17247 2.05455 1.06024 2.70981 0.870317L2.13221 0.9852L3.07967 0.719574C3.44924 0.617806 3.82718 0.530887 4.21156 0.45926C4.72024 0.358322 5.2726 0.226173 5.87932 0.151133L6.81027 0.0574999L7.27817 0.0130075C7.43544 0.00371056 7.59367 0.00703089 7.75675 0.00437463C8.16641 0.00769496 8.57413 -0.0155474 9.00417 0.0203122C9.43422 0.0707812 9.87785 0.0926954 10.337 0.179688C10.2972 0.139844 10.0361 0.0734375 10.0875 0.0634765C10.1137 0.0528515 10.2196 0.0555077 10.4758 0.103985L10.967 0.198946C11.2275 0.244732 11.4791 0.311611 11.7165 0.398166L11.5223 0.271993C12.3766 0.523674 13.2153 0.912817 13.6483 1.20833C13.8875 1.34826 14.106 1.50396 14.3006 1.67317C15.6965 1.23732 17.1515 0.896132 18.6447 0.654495L17.6177 0.871645C17.3075 0.929715 17.004 1.00363 16.71 1.09278L15.0762 1.57954C14.8646 1.64196 14.6481 1.71235 14.4287 1.78407C14.4909 1.84118 14.5481 1.90028 14.6054 1.95872L14.8297 1.88634C15.7189 1.63067 16.3285 1.51977 16.0703 1.59747C15.9344 1.64329 16.0489 1.62071 16.5197 1.50583C16.7595 1.45669 17.0702 1.34778 17.5148 1.28005L19.165 0.987192C19.8164 0.883598 20.5493 0.833129 21.2425 0.753441C25.7468 0.398166 30.42 0.941372 34.4525 2.37111C34.5447 2.29075 34.6942 2.15861 34.9378 1.96337L35.3727 1.66786C36.5483 0.963286 38.1258 0.657816 39.6441 0.643206L40.3236 0.635237L40.2265 0.628597C41.7304 0.696859 43.2105 0.92076 44.6163 1.29266C44.4512 1.28735 44.825 1.40157 45.4045 1.55231C45.5132 1.62279 45.6273 1.68929 45.7462 1.75153C45.9481 1.85247 45.4734 1.75153 44.2813 1.43809C43.905 1.33569 43.5178 1.25289 43.1232 1.1904C42.7291 1.12399 42.3379 1.03301 41.9399 0.984536C41.4244 0.938716 40.842 0.862348 40.4071 0.841098C39.1247 0.765394 37.754 0.850395 36.4435 1.33118C36.2979 1.37589 36.1609 1.43277 36.0358 1.50052L35.6484 1.6838C35.2628 1.89191 34.9171 2.13242 34.6194 2.39966C34.6709 2.38638 34.6767 2.39634 34.6466 2.43818L34.7087 2.46009C34.7214 2.44947 34.7301 2.43751 34.7427 2.42689C34.8861 2.28552 35.0486 2.15367 35.2281 2.0331C35.2106 2.06298 35.2465 2.05833 35.166 2.12939C35.0553 2.23203 34.9547 2.33962 34.865 2.45146C34.8495 2.4674 34.8398 2.48798 34.8243 2.50458L34.8912 2.53048C34.9408 2.49064 34.9883 2.45544 35.0184 2.42224C35.1193 2.31849 35.2296 2.21914 35.3485 2.12474C35.397 2.08556 35.531 1.99192 35.6397 1.91556C35.9367 1.74755 36.3648 1.51712 36.8201 1.39493C37.2444 1.2309 37.6938 1.19903 37.8608 1.16383C37.9579 1.15653 38.1122 1.11602 38.2704 1.11071C38.6257 1.08215 38.9781 1.03567 39.3383 1.01774L40.4284 1.02372C40.9618 1.06198 41.4919 1.11917 42.0166 1.19505C42.3738 1.2754 42.5223 1.32786 42.3476 1.32188C42.1088 1.31391 42.8456 1.5211 43.4902 1.64063C44.7114 1.93548 44.9463 2.04903 45.0075 2.0922C45.0288 2.11079 44.8716 2.08689 44.9987 2.12806C45.553 2.30802 45.2191 2.25357 44.5959 2.1181L45.0948 2.27681L44.2047 2.07759C43.8843 1.99657 43.3853 1.86376 43.1786 1.84649C42.7204 1.78938 42.2195 1.68114 41.703 1.62337L40.9264 1.54966L40.5381 1.51048C40.409 1.50317 40.2828 1.51048 40.1566 1.50649C39.8363 1.51313 39.5014 1.48524 39.1771 1.50649C38.8597 1.54434 38.5141 1.54833 38.185 1.60809C38.2258 1.61806 38.4267 1.61473 38.4025 1.64395C38.3183 1.67461 38.2318 1.70209 38.1433 1.7263L37.8171 1.80665C37.6471 1.83748 37.4838 1.88371 37.3317 1.94411H37.5055C36.9852 2.12275 36.4726 2.35118 36.2377 2.55572C36.0838 2.6624 35.9432 2.77768 35.8173 2.90037C36.0358 2.99267 36.2552 3.08498 36.4687 3.18326C37.0949 3.45619 37.6666 3.76764 38.2636 4.06182C40.2287 5.15192 41.9204 6.45425 43.2718 7.91739C43.5861 7.7479 43.8673 7.5515 44.1085 7.33301C44.7881 6.70679 45.124 5.9564 45.2366 5.09909C45.2482 5.02472 45.2502 4.89522 45.2502 4.85007C45.2104 4.31881 45.2404 4.15147 45.1968 3.80482C45.1797 3.72721 45.1847 3.64807 45.2113 3.57174C45.222 3.53986 45.2686 3.64811 45.2725 3.59232C45.288 3.45353 45.2142 3.03783 45.2725 3.1308C45.3531 3.25099 45.3006 2.99002 45.2463 2.76955C45.3356 2.9847 45.3987 3.16201 45.4792 3.42896C45.3103 2.73966 45.5453 3.13744 45.2356 2.30005L45.3647 2.57564C45.3424 2.33857 45.3065 2.11079 45.257 1.87771C45.4987 2.33557 45.6825 2.8068 45.8064 3.28619C45.8336 3.28619 45.8336 3.16201 45.8938 3.29881C46.0539 3.66271 46.1462 4.39584 46.1005 4.9178C46.0734 5.35077 46.0035 5.66222 45.9763 5.85214C45.9334 6.11361 45.8407 6.37012 45.7006 6.61515C45.6161 6.77366 45.5189 6.92885 45.4094 7.08L45.421 7.08531C45.7641 6.63045 45.9937 6.1396 46.1005 5.633C46.0427 5.9531 45.9329 6.26781 45.7734 6.57132C45.405 7.29334 44.7519 7.93158 43.8862 8.41544C43.8474 8.43934 43.8018 8.46059 43.76 8.48184C43.7969 8.52567 43.8329 8.57016 43.8688 8.61466C43.9192 8.59208 43.9717 8.57149 44.0222 8.54825L44.3959 8.32512L44.326 8.33774C44.604 8.1732 44.8597 7.99184 45.09 7.79586C44.9642 7.92182 44.8253 8.04144 44.6745 8.15379C44.6745 8.17637 44.6599 8.20626 44.6852 8.20626C44.7492 8.19829 44.626 8.37825 45.1909 7.95989C45.4 7.79067 45.5944 7.61328 45.7734 7.42863C45.9159 7.29937 46.0304 7.15666 46.1131 7.00496C46.2791 6.76722 46.4432 6.41593 46.4908 6.32628C46.5558 6.21339 46.5413 6.32628 46.5675 6.34222C46.5801 6.31699 46.6111 6.24925 46.6587 6.13238C46.5544 6.45554 46.4032 6.77077 46.2073 7.07336L46.1297 7.13379C45.881 7.52014 45.5553 7.88106 45.1618 8.20626C44.8372 8.45275 44.4757 8.67532 44.0833 8.87032C44.2127 9.03457 44.3373 9.20036 44.457 9.36771C44.8958 9.14724 45.1366 8.99649 45.2608 8.94868C45.5744 8.80192 45.8802 8.66313 46.1102 8.53298C46.1471 8.5104 45.9947 8.67708 45.8258 8.7986C45.4644 9.08829 45.0501 9.34495 44.593 9.56228C45.3462 10.6448 45.9106 11.7842 46.2743 12.957C46.0976 12.5931 46.4316 13.55 46.6121 15.0355C46.582 15.4041 46.5481 15.6365 46.5296 16.0655C46.517 16.359 46.482 16.2063 46.4238 15.6006C46.3621 14.5328 46.136 13.4724 45.7491 12.437C45.4058 11.4937 44.9296 10.5754 44.327 9.69509C44.1775 9.7615 44.0231 9.81662 43.8688 9.87505L43.8843 9.89896C43.9998 10.0816 44.1435 10.2629 44.2483 10.4568L44.5522 11.0385C44.9822 11.7623 45.1521 12.3806 45.3385 12.8673L45.4598 13.212L45.522 13.5214L45.619 14.0241L45.7258 14.645C45.7332 14.7336 45.7299 14.8225 45.7161 14.9107C45.7035 14.9837 45.654 14.6039 45.6656 14.9412C45.6918 15.6777 45.6812 15.841 45.6433 15.6259C45.5851 15.4127 45.6064 14.813 45.3734 14.0434L45.5006 14.7247C45.5093 14.9412 45.5171 15.1491 45.5249 15.3563L45.4754 14.8077C45.4628 14.6264 45.3967 14.4505 45.3598 14.2692C45.2628 13.9093 45.2006 13.5387 45.0764 13.1356C44.9191 12.7425 44.7444 12.2305 44.5493 11.763L43.9484 10.648C43.8115 10.3791 43.5843 10.1281 43.4018 9.85646C43.198 9.59083 43.0349 9.30595 42.7912 9.04431C42.3059 8.51969 41.8574 7.95457 41.2506 7.45055C40.9526 7.19687 40.7041 6.91199 40.3624 6.67758L39.3868 5.9471C39.0655 5.69941 38.6791 5.49554 38.3306 5.26776C37.9867 5.03906 37.6195 4.82735 37.2317 4.63424C35.3135 3.6076 33.1167 2.74166 30.5083 2.1772C30.6355 2.23497 31.3664 2.44681 31.2296 2.43486C31.0859 2.44482 30.1336 2.05833 26.6204 1.71567L27.2854 1.83985C24.8187 1.58153 22.1288 1.63731 20.5435 1.88235C18.302 2.16259 16.0509 2.65599 14.1026 3.36322L12.1853 4.08639L12.3504 4.00139C11.8931 4.18201 11.4767 4.441 11.0097 4.66546C10.7865 4.78565 10.5448 4.89257 10.3302 5.02339L9.70797 5.41386C8.85759 5.90394 8.21689 6.45777 7.72957 6.82035C6.66175 7.74207 5.36676 9.0204 4.44455 10.5152C3.55466 11.9927 3.00168 13.5548 2.80494 15.1471L2.73699 15.9798C2.68845 16.284 2.76514 16.602 2.77097 16.8962C2.77776 17.6632 2.99618 18.4149 3.15927 19.17L3.57766 20.279C3.6393 20.4652 3.72339 20.6475 3.82909 20.8242L4.12031 21.3614C4.92604 22.7812 6.00552 24.1385 7.42087 25.3172C7.70531 25.5829 8.05866 25.8106 8.37221 26.0597C8.68243 26.3109 9.01887 26.5463 9.37888 26.7642L10.4409 27.4283L11.5961 28.0233C11.7902 28.1196 11.9737 28.2265 12.1785 28.3148L12.793 28.5705C13.2066 28.7359 13.6017 28.9251 14.0298 29.0725C14.8966 29.3534 15.7451 29.6702 16.6673 29.8694C19.7174 30.6504 23.2684 30.9386 26.2972 30.6769C28.6497 30.4875 30.9407 30.035 33.0789 29.3375C35.2314 28.6458 37.2 27.713 38.9034 26.5776C39.2111 26.3817 39.68 26.0059 39.8489 25.879C40.2684 25.5631 40.6575 25.2288 41.0138 24.8783C41.3235 24.5868 41.6186 24.3563 41.8205 24.1093C42.2408 23.6259 42.6786 23.2527 43.0572 22.6636C43.2312 22.4082 43.429 22.1607 43.6494 21.9225C43.7367 21.8276 43.495 22.2008 43.6387 22.0248C43.962 21.5792 44.7357 20.1594 44.5862 20.5061C44.4551 20.9643 44.825 20.0505 45.1443 19.2749L44.7366 20.3985C44.6095 20.7777 44.3609 21.1542 44.1338 21.6211C44.8133 20.4457 44.8638 20.1953 45.0191 19.8945C45.091 19.7417 45.1696 19.5724 45.3026 19.253C45.3938 18.9276 45.5132 18.4481 45.6763 17.6792C45.587 18.1838 45.4589 18.7344 45.4676 18.7124L45.6559 18.0982C45.7285 17.8979 45.7782 17.6941 45.8045 17.4886L45.9986 16.2142L45.885 17.7482L45.5938 19.0764C45.4899 19.4941 45.3026 19.8799 45.1735 20.263C45.0444 20.6462 44.8434 21.0075 44.6493 21.3707C44.6745 21.3773 44.9191 20.9875 44.6852 21.4663L44.4211 21.9976C44.3241 22.1908 44.1678 22.3834 44.0328 22.5952C43.8183 22.904 43.5989 23.2407 43.3261 23.5727L42.9592 25.9335L42.9475 26.0085C44.1249 24.9275 45.1155 23.757 45.8996 22.5202C46.1675 21.9982 46.6034 21.2744 46.7733 20.866C47.2897 19.5897 47.4402 19.2298 47.3538 19.6023ZM44.8599 6.98504L44.9434 6.90137C45.3782 6.26976 45.603 5.58008 45.6016 4.88194L45.5792 4.92643C45.5792 5.04397 45.5715 5.16018 45.5559 5.27507C45.5297 5.46624 45.4859 5.65609 45.4249 5.84351C45.3325 6.15 45.1912 6.44863 45.0036 6.73402L44.8599 6.98504ZM1.38085 7.63117L1.30319 7.50367C0.718578 6.70057 0.401621 5.81877 0.375148 4.92178L0.357674 4.9769C0.364469 5.11968 0.388738 5.26378 0.407183 5.40655C0.436792 5.64782 0.486707 5.88773 0.556679 6.12507C0.671372 6.53344 0.857137 6.93095 1.11001 7.3091C1.1853 7.42204 1.27598 7.52988 1.38085 7.63117ZM42.1826 28.7711L42.1486 28.8946L41.805 31.3994L41.8321 31.3483L41.8836 30.9379L41.9933 30.2566L42.169 29.1104C42.1865 28.9802 42.1787 28.8826 42.1826 28.7711ZM39.8159 26.2423C39.7101 26.32 39.6091 26.4003 39.5052 26.48C39.6683 26.3625 39.8372 26.2496 39.9906 26.1281L39.8159 26.2423ZM29.6958 30.4724L30.2646 30.3841C33.5924 29.6636 36.6968 28.4198 39.1635 26.7271L38.4636 27.1647C37.7035 27.6767 36.8192 28.0745 35.9639 28.5081L34.8155 28.9829C34.6214 29.0613 34.435 29.1456 34.2331 29.2186L33.6264 29.4179L32.4207 29.8163L31.183 30.1277L30.42 30.327L29.6958 30.4724ZM31.28 30.5508L31.2723 30.5315C31.1752 30.5567 31.0781 30.5793 30.9811 30.6045L30.9859 30.6158C31.0859 30.5933 31.183 30.5733 31.28 30.5508ZM30.9888 30.6351C31.0419 30.7559 31.1037 30.8748 31.1742 30.9917C31.2645 30.9704 31.3558 30.9492 31.4558 30.9253C31.3874 30.8077 31.3282 30.6878 31.2781 30.566C31.183 30.5893 31.0859 30.6132 30.9888 30.6351ZM4.85129 24.3125V24.3045L4.77848 24.2269V24.2381L4.85129 24.3125ZM4.19118 8.94204L4.16109 8.92544C4.12808 8.96794 4.09216 9.00911 4.06401 9.05228L4.10187 9.06821C4.12905 9.02638 4.15817 8.98388 4.19118 8.94204ZM12.9658 2.81603C13.0891 2.76158 13.2279 2.71708 13.3599 2.66861C13.3531 2.65798 13.3444 2.64669 13.3396 2.63873C13.2512 2.66994 13.1668 2.69849 13.0755 2.73236L11.9019 3.21912C11.7077 3.30213 11.5058 3.3765 11.3194 3.46682L10.77 3.74705L9.67108 4.30686L8.6615 4.9344C6.96114 6.01844 5.5155 7.27547 4.37562 8.66114L4.4096 8.67841C4.59404 8.45462 4.7814 8.23149 4.98137 8.01434L5.34346 7.60727L5.76089 7.22609L6.59573 6.46375C6.89861 6.22335 7.21799 5.99226 7.52863 5.75652C7.82862 5.51504 8.153 5.28826 8.49938 5.07784L9.53517 4.43768C9.88173 4.22651 10.272 4.05186 10.6389 3.85729C11.3582 3.45287 12.1756 3.14873 12.9658 2.81603ZM13.822 2.47138L13.6046 2.54509L13.6279 2.569C13.6987 2.54443 13.7677 2.51787 13.8405 2.49396L13.822 2.47138ZM44.1911 9.50118C44.0755 9.33716 43.9591 9.1738 43.8348 9.01243C43.6911 9.08415 43.5533 9.14525 43.4251 9.19638C43.528 9.34911 43.6338 9.51579 43.7474 9.68845C43.894 9.62868 44.0416 9.56228 44.1911 9.50118ZM43.8231 8.99849C43.7775 9.01974 43.7358 9.04165 43.6892 9.06489C43.7503 9.04298 43.794 9.02571 43.8309 9.01044L43.8231 8.99849ZM43.5154 8.61997C43.3873 8.68638 43.2572 8.74481 43.1368 8.79927C43.0223 8.64387 42.9019 8.49048 42.7786 8.3384C42.7679 8.32446 42.7543 8.31184 42.7417 8.29923C42.8029 8.39219 42.9679 8.60403 43.2009 8.88958V8.88493C43.3339 8.83845 43.4717 8.78599 43.6086 8.73087L43.5154 8.61997ZM35.6601 3.05045C35.6047 3.10822 35.5494 3.16599 35.497 3.2251C36.511 3.64312 37.4751 4.11541 38.3801 4.63756L39.6421 5.42183C40.0197 5.68745 40.3585 5.96105 40.6866 6.20742C40.8478 6.33226 41.0089 6.45046 41.1545 6.56867L41.5428 6.92926L42.201 7.55082C42.4447 7.80848 42.6272 8.01567 42.7553 8.17106C42.8456 8.13188 42.9339 8.09204 43.0203 8.04954C42.7456 7.74871 42.4602 7.45188 42.1554 7.16633C41.8797 6.91597 41.6021 6.65168 41.3079 6.39535L40.3478 5.67152L39.8712 5.3189L39.3722 5.00745L38.4549 4.43104C37.5729 3.92559 36.6389 3.4642 35.6601 3.05045ZM34.6952 2.67591C34.6612 2.72306 34.6175 2.76556 34.5884 2.8147C34.634 2.76423 34.6767 2.7224 34.7175 2.68189L34.6952 2.67591ZM34.5078 2.60353C34.4661 2.65267 34.4175 2.71044 34.3593 2.78084L34.3894 2.79212C34.4398 2.73369 34.4916 2.67547 34.5447 2.61747L34.5078 2.60353ZM14.787 2.15263L14.8044 2.17255L15.1587 2.05833C15.3626 1.99524 15.5781 1.95009 15.7868 1.89497L17.0488 1.57821C17.4682 1.46731 17.9157 1.41552 18.3477 1.33184C18.7855 1.26145 19.2146 1.1645 19.6582 1.11602C19.5077 1.14922 19.6116 1.13462 19.1612 1.22825C18.57 1.3511 17.9147 1.4713 17.242 1.61806C16.5867 1.80067 15.8994 1.97997 15.2286 2.17587C17.8138 1.52708 17.806 1.59016 19.6242 1.24618L21.1405 1.0795L21.69 1.02106L22.2909 0.995825L23.581 0.953325C24.0256 0.924106 24.4819 0.964614 24.9401 0.976567L26.2933 1.03102C27.167 1.13395 28.0018 1.20633 28.6833 1.31258L30.2122 1.60079C30.5665 1.65391 31.117 1.82192 31.6489 1.95208C32.475 2.16099 33.2822 2.40336 34.0661 2.6779C34.1341 2.60353 34.1952 2.54177 34.2428 2.49861C33.6885 2.29939 33.1206 2.11146 32.5343 1.94013C30.3297 1.30196 27.8824 0.929419 25.2827 0.815863L24.4372 0.785316C24.1576 0.768508 23.8765 0.767176 23.5965 0.781332L21.9463 0.831801C21.1464 0.874965 20.3678 0.979224 19.532 1.05426C19.1194 1.11071 18.7001 1.19239 18.2584 1.26477C17.8206 1.34911 17.3449 1.39759 16.877 1.5304C17.108 1.49919 16.9809 1.54766 16.3722 1.7097C16.0703 1.7947 15.6373 1.89165 15.0879 2.05169C14.9947 2.08423 14.8898 2.1181 14.787 2.15263ZM13.1541 2.20974C13.2124 2.26087 13.2706 2.314 13.3279 2.37111L13.3541 2.36181L13.6356 2.27083C13.5813 2.2197 13.5318 2.17587 13.491 2.13802L13.4541 2.10614C13.3531 2.13669 13.2541 2.17388 13.1541 2.20974ZM3.83588 8.36696C3.90189 8.4068 3.97276 8.44598 4.04265 8.48583C4.47834 7.96262 4.95839 7.45728 5.48034 6.97242C7.21596 5.36271 9.38658 3.99551 11.8747 2.94486C12.2902 2.78416 12.726 2.58294 13.1881 2.42091C13.1376 2.37708 13.0765 2.32529 12.9998 2.26353C12.6668 2.38704 12.3368 2.51919 12.0077 2.65732C10.9496 3.05974 9.99434 3.59166 9.11484 4.06049C6.66077 5.5148 5.29978 6.69551 3.94752 8.24411C3.91063 8.28329 3.87374 8.32579 3.83588 8.36696ZM3.38254 8.4845V8.47985L3.37089 8.47321L3.38254 8.4845ZM3.71551 8.88294C3.7524 8.83579 3.79317 8.78997 3.83103 8.74282C3.80967 8.7302 3.7854 8.71891 3.76502 8.7063L3.61358 8.61731C3.59708 8.63723 3.57766 8.65649 3.56116 8.67641L3.5 8.7654C3.53398 8.78466 3.56601 8.80524 3.59708 8.8245C3.62814 8.84376 3.67765 8.86368 3.71551 8.88427V8.88294ZM1.55947 15.1823C1.72782 13.2611 2.44306 11.3809 3.66503 9.64728L3.63688 9.63533C3.58834 9.70572 3.53495 9.77478 3.48738 9.84584C2.25813 11.6998 1.58286 13.7031 1.50122 15.7381C1.50074 15.7588 1.50269 15.7794 1.50705 15.7999L1.55947 15.1823ZM3.36992 22.408L3.40972 22.4571L4.14264 23.501C4.32611 23.7228 4.53094 23.9513 4.73771 24.185V24.1717C4.40096 23.8105 4.1025 23.4332 3.84462 23.0428L3.31362 22.2785C3.15441 22.0255 3.03695 21.7685 2.90202 21.5268L2.52828 20.8282C2.4312 20.6017 2.35548 20.3832 2.27588 20.182C2.17881 19.9164 2.07591 19.676 1.99631 19.4648C2.11183 19.8234 2.24773 20.176 2.36907 20.536C2.44987 20.7693 2.55498 20.9983 2.6836 21.2213L3.05249 21.9285C3.19292 22.2029 3.36462 22.4694 3.56601 22.7254C3.82229 23.0614 4.0776 23.5097 4.57074 24.0163C4.26917 23.6868 4.00282 23.3428 3.77375 22.987L3.36992 22.408ZM6.25403 26.9522L6.17734 26.393C6.17734 26.49 6.17734 26.5345 6.18316 26.5923L6.10259 26.1121C5.78354 25.8465 5.47872 25.5727 5.18814 25.2907L5.32696 26.1872C5.62498 26.4455 5.93174 26.7032 6.25403 26.9522ZM6.99277 27.498L6.8957 26.8758C6.88696 26.8214 6.87725 26.7656 6.86754 26.7091C6.78891 26.65 6.71319 26.5883 6.63553 26.5285C6.64233 26.6454 6.6501 26.7629 6.65592 26.8785L6.71028 27.243L6.73455 27.1939L6.74814 27.3221C6.83357 27.3798 6.91414 27.4403 6.99277 27.498ZM8.11399 30.7971L8.01692 30.1145L7.84898 28.9676C7.82859 28.8348 7.7917 28.7438 7.76258 28.6356V28.7611L8.17612 31.2593L8.18777 31.2055L8.11399 30.7971ZM14.9287 31.1956C14.9753 31.1524 15.0258 31.1092 15.0646 31.0627C15.1482 30.9691 15.2244 30.8725 15.2927 30.7732C14.7967 30.6444 13.8939 30.3409 13.4687 30.2028C12.9581 30.0507 12.5086 29.8302 12.0378 29.6423C11.567 29.4544 11.0991 29.2671 10.6787 29.0347L9.39344 28.3793L8.21301 27.6528C8.12079 27.593 8.03536 27.5286 7.94411 27.4682C7.96644 27.6063 7.98974 27.7424 8.01206 27.8746C8.03148 27.9861 8.04798 28.0944 8.06643 28.2066C10.0857 29.465 12.4072 30.4756 14.9287 31.1942V31.1956ZM16.2732 30.9817C16.1868 30.9658 16.0936 30.9479 15.9819 30.924C15.8738 31.0814 15.7479 31.2328 15.6053 31.3769C15.6946 31.4001 15.7829 31.4233 15.8723 31.4433C16.0236 31.2965 16.1576 31.1417 16.2732 30.9804V30.9817ZM30.5034 31.1358C30.4387 31.0216 30.3789 30.904 30.3239 30.7832C29.3453 30.9532 28.3746 31.1491 27.3698 31.2235C26.3632 31.3563 25.34 31.3689 24.3236 31.4067C23.8159 31.436 23.3082 31.3848 22.8025 31.3782C22.2977 31.3529 21.788 31.3662 21.292 31.2978C19.7077 31.165 17.9196 30.8874 16.7896 30.6225C15.6597 30.3575 15.1219 30.2446 16.0043 30.485L17.0983 30.7805C17.4866 30.8914 17.937 30.9505 18.3836 31.0461C18.836 31.1225 19.2912 31.2407 19.7708 31.2879L21.1949 31.4552C21.4327 31.5044 22.3491 31.5342 22.9558 31.5515L22.7287 31.5216C23.3975 31.5442 23.9975 31.588 24.6226 31.5542L25.5934 31.5263C25.9508 31.5242 26.3076 31.5053 26.6612 31.4698C26.3507 31.5075 26.0367 31.5297 25.7215 31.5362L25.0119 31.5654L24.2848 31.5953C24.2081 31.6146 24.0518 31.6325 24.1159 31.6425C24.2984 31.6704 23.3451 31.7401 26.2399 31.6677C26.8223 31.6226 27.5795 31.5415 28.227 31.4818C28.8745 31.422 29.3919 31.3018 29.5443 31.2932C29.7666 31.254 30.0608 31.2195 30.5034 31.1358ZM31.7654 31.7182L32.0295 31.6518C31.82 31.4435 31.6427 31.221 31.5004 30.9877L31.3868 31.0083C31.3286 31.0216 31.2723 31.0309 31.214 31.0442C31.3631 31.2813 31.5479 31.5072 31.7654 31.7182ZM40.9565 27.6674L41.1012 27.5558L41.2953 26.3605L41.2429 26.5537L41.3235 25.9401C41.2977 25.8609 41.2827 25.7802 41.2788 25.6991C41.2788 25.6871 41.2788 25.6632 41.2788 25.6327C41.1905 25.7124 41.1031 25.7921 41.0128 25.8684L40.4828 26.2669L40.4692 26.3691C40.4051 26.8273 40.3614 27.0724 40.3158 27.17C40.2119 27.3958 40.109 27.605 40.0129 27.7736C39.9964 27.8015 40.0032 27.6322 40.0129 27.4854C40.0382 27.1819 40.0819 26.8572 40.1314 26.5272C39.8305 26.7648 39.5062 26.988 39.1606 27.1952L38.152 27.8254L36.5609 28.6701C35.4133 29.2247 34.1888 29.7009 32.9051 30.0919C32.5061 30.2373 32.0634 30.3157 31.6431 30.4319C31.5907 30.4445 31.5402 30.4584 31.4878 30.4717L31.4975 30.4923C33.6926 29.9532 35.7501 29.1815 37.5948 28.2053L36.5444 28.7478C36.193 28.9211 35.8135 29.0606 35.4533 29.216C35.0844 29.3614 34.7398 29.5327 34.3564 29.6536L33.2206 30.0281C32.9886 30.1005 32.7653 30.1875 32.5265 30.2486L31.8062 30.4286C31.7091 30.4525 31.6043 30.4797 31.5023 30.5049C31.5571 30.6258 31.6219 30.7444 31.6965 30.8602L31.88 30.8131L32.8808 30.5627L33.8622 30.244C34.4894 30.0447 35.0184 29.8734 35.2213 29.7791C35.7504 29.5752 35.2951 29.7871 35.2543 29.8289L36.1989 29.4457L34.9369 29.9717L33.7894 30.3535C33.4273 30.4677 33.0983 30.5939 32.7585 30.6856L31.7557 30.9386H31.7499C31.7848 30.9904 31.814 31.0442 31.8528 31.0946C31.9562 31.2322 32.0794 31.3623 32.2207 31.4831L32.1741 31.4247C32.2236 31.4751 32.2809 31.5223 32.3343 31.5708C34.0006 31.1344 35.5897 30.5711 37.0716 29.8913C37.5569 29.6921 37.9782 29.4311 38.4306 29.204L39.1004 28.8507C39.3179 28.7286 39.5169 28.5904 39.7246 28.4609C40.1362 28.1966 40.5614 27.9436 40.9526 27.6667L40.9565 27.6674ZM41.8515 26.9754L41.8583 26.9296C41.9554 26.2655 42.0137 25.4022 41.9011 25.7927C41.8166 26.0842 41.7186 26.5099 41.6244 26.8991L41.5807 27.1853L41.8515 26.9754ZM26.7864 24.3192C25.9652 24.44 25.2196 24.527 24.4566 24.5356C23.6878 24.5642 22.9034 24.517 21.9909 24.4287C22.1647 24.4553 22.2462 24.4619 22.3443 24.4752C21.8997 24.4526 21.5366 24.3836 21.224 24.3517C21.0793 24.3571 20.9341 24.35 20.792 24.3304C20.6726 24.3119 20.1601 24.2415 19.9611 24.1797C19.1921 23.9956 18.4512 23.7607 17.7487 23.4784C17.0585 23.1908 16.4266 22.8423 15.8693 22.4418C15.6092 22.2333 15.3044 22.0029 15.1354 21.7944C14.619 21.2548 14.2826 20.644 14.1501 20.0054C14.031 19.3505 14.1511 18.6856 14.4996 18.0703C14.9253 17.3289 15.6158 16.6723 16.5081 16.1604C17.3439 15.6695 18.2959 15.2797 19.3233 15.0076C20.0727 14.8084 21.19 14.6205 21.0007 14.6975C20.9037 14.7387 21.1774 14.6782 22.1841 14.56L22.9607 14.4989C23.9499 14.4525 24.9434 14.4766 25.9254 14.5707C26.9057 14.6777 27.8639 14.8645 28.7794 15.1272C29.0444 15.2155 29.323 15.2746 29.5764 15.3755L29.4715 15.3284C31.1839 15.9406 32.7323 16.9221 33.3798 18.2503C33.2594 18.1267 33.4536 18.474 33.5565 19.0285C33.5128 19.17 33.4701 19.2576 33.4361 19.4157C33.4128 19.5233 33.3837 19.4668 33.3487 19.2477C33.3339 19.0963 33.3015 18.946 33.2516 18.7981C33.2206 18.7038 33.1973 18.5989 33.1546 18.484L32.975 18.1188C32.6168 17.462 31.9615 16.8683 31.182 16.3922C30.6803 16.0921 30.1344 15.8283 29.5531 15.6053C28.811 15.3091 28.0157 15.0803 27.1873 14.9246C26.303 14.7486 25.3898 14.6498 24.4692 14.6304C24.0518 14.6098 23.6344 14.6211 23.2354 14.6304C22.5961 14.6492 21.9598 14.7007 21.3318 14.7845C21.5201 14.817 21.1308 14.8416 19.8698 15.1391C19.2344 15.2929 18.6227 15.4893 18.0438 15.7255C17.1119 16.1159 16.2644 16.614 15.6432 17.2283C15.0073 17.8364 14.637 18.5556 14.5753 19.3021C14.5757 19.3099 14.5783 19.3176 14.5831 19.3247L14.6112 19.0996C14.6822 18.638 14.8798 18.1896 15.1937 17.7781C15.3267 17.5636 15.5432 17.3797 15.7208 17.1804C15.9421 17.0038 16.1344 16.8106 16.3877 16.6538C17.3566 15.9917 18.5317 15.488 19.8252 15.1803C20.0251 15.1351 20.2232 15.0641 20.4435 15.0242C21.078 14.8934 21.7275 14.7994 22.385 14.7433C22.3336 14.7733 22.2698 14.7917 22.2025 14.7958C21.7049 14.8781 21.2148 14.9803 20.7348 15.1019C21.2201 15.0176 21.4706 14.9983 21.6754 14.9691C21.8802 14.9399 22.0424 14.9027 22.3831 14.8655L22.9403 14.8131C23.569 14.7784 24.2007 14.7784 24.8294 14.8131C25.3174 14.841 25.8009 14.8974 26.2748 14.9817L26.8146 15.0807C27.7378 15.2346 28.6273 15.4713 29.4599 15.7846C30.9801 16.3431 31.7004 17.0968 31.3626 16.8942C31.114 16.776 31.7645 17.2894 32.1392 17.7781C32.3081 18.0152 32.4547 18.2038 32.5119 18.3685C32.5793 18.4909 32.6252 18.6184 32.6488 18.7483C32.6847 18.9396 32.6838 19.0106 32.6702 19.0431C32.6566 19.0757 32.6012 18.9482 32.6197 19.0571C32.6129 19.2982 32.5964 19.3493 32.5682 19.2815C32.5285 19.1139 32.4753 18.9478 32.409 18.7842C32.4454 18.9215 32.4626 19.0609 32.4605 19.2005C32.4461 19.0858 32.4135 18.9725 32.3634 18.8625C32.3303 18.7435 32.2796 18.6272 32.212 18.5152L32.11 18.3113C32.0664 18.2403 32.013 18.1686 31.9605 18.0975C31.8873 17.9798 31.7941 17.8684 31.6829 17.7655C31.0859 17.1479 30.0239 16.519 28.8444 16.1053C28.0431 15.831 27.1954 15.6253 26.3205 15.4931C26.3651 15.5229 26.6311 15.5847 26.5767 15.6013C26.4464 15.6038 26.3161 15.5957 26.1884 15.5774L25.6924 15.5223L24.9158 15.4672L25.1478 15.5402C24.2741 15.4871 23.3305 15.503 22.7685 15.5714C21.9823 15.6453 21.2072 15.7667 20.4523 15.934C20.0902 16.0183 19.9514 16.0197 19.7242 16.0788L19.7824 16.0469C19.1353 16.2377 18.5283 16.487 17.9778 16.788C17.457 17.0881 17.0005 17.4368 16.6217 17.8239C16.2314 18.2256 15.9724 18.6803 15.8625 19.1567C15.8294 19.3278 15.8238 19.5008 15.846 19.6727C15.9334 20.5712 16.7061 21.4418 17.8691 22.0666C18.8486 22.6284 20.0882 23.003 21.3852 23.2334C22.5025 23.4205 23.6571 23.4815 24.8032 23.414C25.626 23.3608 26.439 23.2516 27.2301 23.088C28.0042 22.9181 28.7466 22.687 29.4424 22.3993L29.8307 22.2181C30.2035 21.9989 30.4501 21.8641 30.6384 21.7359C30.8403 21.6198 31.0247 21.4901 31.1888 21.3488C31.2705 21.2777 31.3629 21.2127 31.4645 21.1549C31.5072 21.1323 31.4227 21.2492 31.4868 21.202C31.6703 21.0925 32.0188 20.6748 31.9722 20.7863C31.9091 20.9318 32.1557 20.6721 32.2809 20.4291C32.1735 20.6835 32.0196 20.9276 31.8227 21.1555C32.1353 20.8023 32.2003 20.7319 32.2857 20.6435C32.342 20.5493 32.4945 20.4443 32.6313 19.9456L32.5459 20.2816L32.7624 19.8925L32.907 19.4695C32.8946 20.0689 32.6608 20.6564 32.2275 21.1775C32.2518 21.1874 32.3809 21.0686 32.276 21.2293C32.1955 21.3329 32.0887 21.4577 31.9654 21.5965C31.8169 21.724 31.6606 21.8688 31.48 22.0075C31.1072 22.2765 30.6955 22.5188 30.251 22.7307L29.7763 22.9499L29.3492 23.1152C29.0949 23.2234 28.8716 23.2892 28.7105 23.3509C28.2604 23.5142 27.7845 23.6419 27.2922 23.7315C26.9776 23.7973 26.6581 23.8516 26.335 23.8942V23.9061C27.311 23.7826 28.258 23.5693 29.1502 23.2719C28.859 23.3656 28.5784 23.4625 28.2921 23.5409C28.0008 23.6073 27.7183 23.6936 27.4184 23.7474C25.9856 24.0327 24.4897 24.1402 23.0015 24.0648C21.8366 24.029 20.3678 23.7633 21.0231 23.928C21.6541 24.0652 22.3015 24.1645 22.9578 24.2249C23.0461 24.2375 23.3849 24.2381 23.6082 24.2454L23.5247 24.2215C24.0169 24.2514 24.4091 24.2348 24.975 24.2295L24.1013 24.2694C24.0732 24.2873 24.0159 24.3006 24.0392 24.3125C24.1072 24.3451 23.748 24.3909 24.8284 24.3909C25.2653 24.3796 25.9603 24.3351 26.072 24.3285C26.3744 24.3111 26.6741 24.2762 26.968 24.2242L27.7446 24.0854C27.9892 24.0296 28.1969 23.9825 28.2843 23.9672C28.5047 23.9274 28.3222 23.9931 28.3095 24.019C28.2125 24.0389 28.3581 24.0117 28.6978 23.9274C28.3251 24.027 28.0115 24.1047 27.7271 24.1697L26.9311 24.3211C26.8767 24.3211 26.8369 24.3178 26.7816 24.3165L26.7864 24.3192ZM26.038 23.5522L26.2447 23.5356C27.5935 23.3576 28.8704 22.9832 29.9889 22.4379L29.9074 22.4591C29.7323 22.5504 29.5491 22.6343 29.3589 22.7101L28.8735 22.8934L28.3678 23.0501C27.7889 23.2184 27.1908 23.3541 26.5797 23.4559C26.3709 23.4838 26.2195 23.519 26.038 23.5522ZM15.5898 21.6576L15.6101 21.6729C15.7247 21.7907 15.8502 21.9033 15.9858 22.0102C16.1242 22.1322 16.2764 22.2466 16.4411 22.3522C16.0209 22.0503 15.6534 21.7161 15.3461 21.3561L15.0073 20.8952L14.8132 20.536C14.9481 20.8762 15.1513 21.2021 15.417 21.5042L15.6713 21.7698L16.178 22.1815C15.8179 21.8767 15.6859 21.7758 15.5898 21.6576ZM18.8195 24.5582C18.5409 24.4865 18.436 24.4646 18.5428 24.5051C18.866 24.62 19.2031 24.7156 19.5504 24.7906C21.0475 25.1584 22.6343 25.3246 24.2236 25.2801C24.5149 25.2668 24.8498 25.2449 24.7915 25.2382C24.4411 25.1957 24.0149 25.1718 23.5655 25.1054C23.3713 25.0815 22.8859 25.0709 21.9967 24.9925C19.8844 24.7747 17.7419 24.2355 16.0431 23.2115C15.3625 22.8017 14.7654 22.3313 14.2676 21.813C13.924 21.4145 13.7667 21.2299 13.9162 21.5048C13.9482 21.5573 14.0375 21.7041 14.1327 21.8243C14.7668 22.5877 15.6347 23.2483 16.677 23.7607C17.0218 23.9107 17.3782 24.0477 17.7448 24.1711C17.9555 24.2574 18.4768 24.4247 18.8651 24.5423C18.8602 24.5476 18.9864 24.6007 18.8195 24.5576V24.5582ZM13.9657 18.0165C13.8342 18.2458 13.7585 18.4883 13.7414 18.7344C13.7393 18.788 13.7322 18.8414 13.7201 18.8944C13.7201 18.9761 13.7152 19.0797 13.7123 19.1919C13.6984 19.414 13.7176 19.6365 13.7696 19.856C13.7919 19.9722 13.8152 20.0333 13.8201 19.9788L13.8405 19.5578C13.8412 18.9661 14.0145 18.3805 14.3501 17.8352C14.6814 17.3362 15.1234 16.8752 15.6606 16.4686C16.3732 15.9619 17.043 15.6152 18.1137 15.1902C18.8897 14.8944 19.718 14.6681 20.5785 14.5169C20.783 14.4481 20.993 14.3871 21.2075 14.3343L21.9501 14.1669C20.7532 14.2891 19.2679 14.558 17.97 15.0966C17.7652 15.163 17.0459 15.4864 16.8449 15.5781C16.4494 15.7646 16.0689 15.9656 15.7053 16.1804C15.5438 16.2677 15.3966 16.3668 15.2665 16.4759C15.0436 16.6448 14.845 16.8281 14.6734 17.0231C14.525 17.1735 14.3951 17.3321 14.2851 17.4972C14.1555 17.6631 14.0493 17.8369 13.9676 18.0165H13.9657ZM27.7319 24.9567C28.005 24.9094 28.2735 24.8504 28.5357 24.78C30.5102 24.3085 32.4712 23.4233 33.6516 22.1516C34.2088 21.5586 34.3884 21.0739 34.4282 20.9165C34.468 20.7591 34.3874 20.9112 34.0292 21.4099L33.7933 21.7187C33.6962 21.8342 33.5807 21.9458 33.4934 22.0434C32.9479 22.615 32.2653 23.1195 31.4742 23.5356L31.7577 23.4147L31.4946 23.5542C30.0928 24.3112 28.4602 24.8429 26.7175 25.1101L26.9049 25.0974C27.1854 25.0669 27.4572 25.0045 27.7319 24.9567ZM17.9691 12.1521C18.237 11.5106 17.7031 10.8619 16.8246 10.6115C16.0742 10.3977 15.1471 10.5371 14.8073 11.0445C14.701 11.1369 14.6222 11.2427 14.5753 11.3559C14.4049 11.5504 14.3373 11.779 14.3838 12.0034C14.4302 12.2279 14.588 12.4347 14.8306 12.5891C15.6276 13.208 17.6012 13.03 17.9691 12.1521ZM30.055 12.0047C30.0612 12.2314 30.1811 12.4498 30.3946 12.6233C30.608 12.7967 30.9021 12.9148 31.2276 12.9576C32.3848 13.1954 33.9195 12.3288 33.5487 11.4489C33.2788 10.8081 32.3226 10.4528 31.3839 10.5577C30.5811 10.6487 29.9045 11.1029 30.0103 11.6567C29.9925 11.7725 30.0077 11.8896 30.055 12.0014V12.0047ZM20.4765 19.5678C20.4805 19.7136 20.5576 19.8541 20.6949 19.9657C20.8322 20.0772 21.0214 20.1532 21.2308 20.1807C21.9754 20.3334 22.9626 19.7763 22.7238 19.2098C22.6346 19.0143 22.4436 18.848 22.187 18.7423C21.9304 18.6367 21.6261 18.5991 21.3318 18.6367C20.8153 18.6952 20.3804 18.9874 20.4484 19.3433C20.4362 19.4187 20.4458 19.4949 20.4765 19.5678ZM26.1574 18.6447C26.0472 18.6526 25.9404 18.6752 25.8429 18.7111C25.6352 18.7443 25.4505 18.8253 25.3197 18.9405C25.189 19.0557 25.12 19.1981 25.1245 19.344C25.0614 19.8752 26.0652 20.4178 26.8243 20.1409C27.0852 20.0402 27.283 19.8777 27.3804 19.6839C27.4777 19.4901 27.4678 19.2787 27.3524 19.0896C27.1611 18.7549 26.6525 18.5272 26.1574 18.6447Z" fill="#707070"/>
</svg>
