<svg width="49" height="30" viewBox="0 0 49 30" fill="none" xmlns="http://www.w3.org/2000/svg">
<path d="M34.8038 15.7162C34.1758 15.5322 33.3645 15.5446 32.6818 15.7485L27.8431 17.3056L24.5545 18.3232L19.7159 19.8804C19.0956 20.0834 18.2842 20.0957 17.5938 19.9126L13.701 18.8105C13.073 18.6265 12.629 18.2785 12.6213 17.8915L12.5755 15.6021C12.5678 15.2152 12.9352 14.8548 13.6179 14.6509L17.4026 13.4645C18.0228 13.2616 18.8342 13.2493 19.5246 13.4323L23.3544 14.5031C23.9824 14.6871 24.4264 15.0352 24.4342 15.4221L24.4638 16.9054L27.7517 15.8556L27.7221 14.3723C27.7144 13.9853 27.3328 13.6363 26.6424 13.4533L19.5471 11.4322C18.9191 11.2482 18.1077 11.2605 17.425 11.4644L10.29 13.7015C9.60729 13.9054 9.2399 14.2658 9.24763 14.6528L9.33332 18.9414C9.34105 19.3283 9.72262 19.6773 10.413 19.8604L17.6331 21.8796C18.2611 22.0636 19.0725 22.0513 19.7552 21.8474L24.5945 20.3224L27.8824 19.2726L32.7217 17.7477C33.342 17.5447 34.1534 17.5324 34.8438 17.7154L38.6735 18.7862C39.3015 18.9702 39.7455 19.3183 39.7532 19.7052L39.799 21.9946C39.8067 22.3816 39.4393 22.742 38.7566 22.9459L34.9726 24.1645C34.3523 24.3674 33.541 24.3797 32.8506 24.1967L29.0208 23.1259C28.3927 22.9419 27.9488 22.5939 27.941 22.2069L27.9114 20.7236L24.6235 21.7734L24.6531 23.2567C24.6609 23.6437 25.0424 23.9927 25.7328 24.1757L32.9529 26.1949C33.5809 26.3789 34.3923 26.3666 35.075 26.1627L42.21 23.9256C42.8303 23.7226 43.2601 23.3613 43.2524 22.9744L43.1667 18.6858C43.1589 18.2988 42.7774 17.9498 42.087 17.7668L34.8038 15.7162Z" fill="#8247E5"/>
</svg>
